ffmpeg version 4.2.4-1ubuntu0.1 Copyright (c) 2000-2020 the FFmpeg developers
  built with gcc 9 (Ubuntu 9.3.0-10ubuntu2)
  configuration: --prefix=/usr --extra-version=1ubuntu0.1 --toolchain=hardened --libdir=/usr/lib/x86_64-linux-gnu --incdir=/usr/include/x86_64-linux-gnu --arch=amd64 --enable-gpl --disable-stripping --enable-avresample --disable-filter=resample --enable-avisynth --enable-gnutls --enable-ladspa --enable-libaom --enable-libass --enable-libbluray --enable-libbs2b --enable-libcaca --enable-libcdio --enable-libcodec2 --enable-libflite --enable-libfontconfig --enable-libfreetype --enable-libfribidi --enable-libgme --enable-libgsm --enable-libjack --enable-libmp3lame --enable-libmysofa --enable-libopenjpeg --enable-libopenmpt --enable-libopus --enable-libpulse --enable-librsvg --enable-librubberband --enable-libshine --enable-libsnappy --enable-libsoxr --enable-libspeex --enable-libssh --enable-libtheora --enable-libtwolame --enable-libvidstab --enable-libvorbis --enable-libvpx --enable-libwavpack --enable-libwebp --enable-libx265 --enable-libxml2 --enable-libxvid --enable-libzmq --enable-libzvbi --enable-lv2 --enable-omx --enable-openal --enable-opencl --enable-opengl --enable-sdl2 --enable-libdc1394 --enable-libdrm --enable-libiec61883 --enable-nvenc --enable-chromaprint --enable-frei0r --enable-libx264 --enable-shared
  WARNING: library configuration mismatch
  avcodec     configuration: --prefix=/usr --extra-version=1ubuntu0.1 --toolchain=hardened --libdir=/usr/lib/x86_64-linux-gnu --incdir=/usr/include/x86_64-linux-gnu --arch=amd64 --enable-gpl --disable-stripping --enable-avresample --disable-filter=resample --enable-avisynth --enable-gnutls --enable-ladspa --enable-libaom --enable-libass --enable-libbluray --enable-libbs2b --enable-libcaca --enable-libcdio --enable-libcodec2 --enable-libflite --enable-libfontconfig --enable-libfreetype --enable-libfribidi --enable-libgme --enable-libgsm --enable-libjack --enable-libmp3lame --enable-libmysofa --enable-libopenjpeg --enable-libopenmpt --enable-libopus --enable-libpulse --enable-librsvg --enable-librubberband --enable-libshine --enable-libsnappy --enable-libsoxr --enable-libspeex --enable-libssh --enable-libtheora --enable-libtwolame --enable-libvidstab --enable-libvorbis --enable-libvpx --enable-libwavpack --enable-libwebp --enable-libx265 --enable-libxml2 --enable-libxvid --enable-libzmq --enable-libzvbi --enable-lv2 --enable-omx --enable-openal --enable-opencl --enable-opengl --enable-sdl2 --enable-libdc1394 --enable-libdrm --enable-libiec61883 --enable-nvenc --enable-chromaprint --enable-frei0r --enable-libx264 --enable-shared --enable-version3 --disable-doc --disable-programs --enable-libaribb24 --enable-liblensfun --enable-libopencore_amrnb --enable-libopencore_amrwb --enable-libtesseract --enable-libvo_amrwbenc
  libavutil      56. 31.100 / 56. 31.100
  libavcodec     58. 54.100 / 58. 54.100
  libavformat    58. 29.100 / 58. 29.100
  libavdevice    58.  8.100 / 58.  8.100
  libavfilter     7. 57.100 /  7. 57.100
  libavresample   4.  0.  0 /  4.  0.  0
  libswscale      5.  5.100 /  5.  5.100
  libswresample   3.  5.100 /  3.  5.100
  libpostproc    55.  5.100 / 55.  5.100
Input #0, image2pipe, from 'pipe:':
  Duration: N/A, bitrate: N/A
    Stream #0:0: Video: ppm, rgb24, 320x240, 20 fps, 20 tbr, 20 tbn, 20 tbc
Stream mapping:
  Stream #0:0 -> #0:0 (ppm (native) -> h264 (libx264))
[libx264 @ 0x55fe71820f40] using cpu capabilities: MMX2 SSE2Fast SSSE3 SSE4.2 AVX FMA3 BMI2 AVX2
[libx264 @ 0x55fe71820f40] profile High, level 1.3
[libx264 @ 0x55fe71820f40] 264 - core 155 r2917 0a84d98 - H.264/MPEG-4 AVC codec - Copyleft 2003-2018 - http://www.videolan.org/x264.html - options: cabac=1 ref=3 deblock=1:0:0 analyse=0x3:0x113 me=hex subme=7 psy=1 psy_rd=1.00:0.00 mixed_ref=1 me_range=16 chroma_me=1 trellis=1 8x8dct=1 cqm=0 deadzone=21,11 fast_pskip=1 chroma_qp_offset=-2 threads=7 lookahead_threads=1 sliced_threads=0 nr=0 decimate=1 interlaced=0 bluray_compat=0 constrained_intra=0 bframes=3 b_pyramid=2 b_adapt=1 b_bias=0 direct=1 weightb=1 open_gop=0 weightp=2 keyint=250 keyint_min=20 scenecut=40 intra_refresh=0 rc_lookahead=40 rc=abr mbtree=1 bitrate=400 ratetol=1.0 qcomp=0.60 qpmin=0 qpmax=69 qpstep=4 ip_ratio=1.40 aq=1:1.00
Output #0, mp4, to './mission_records/b9f1a151-af6d-437e-b984-41e9a6df8ffd/video.mp4':
  Metadata:
    encoder         : Lavf58.29.100
    Stream #0:0: Video: h264 (libx264) (avc1 / 0x31637661), yuv420p, 320x240, q=-1--1, 400 kb/s, 20 fps, 10240 tbn, 20 tbc
    Metadata:
      encoder         : Lavc58.54.100 libx264
    Side data:
      cpb: bitrate max/min/avg: 0/0/400000 buffer size: 0 vbv_delay: -1
frame=   32 fps=0.0 q=0.0 size=       0kB time=00:00:00.00 bitrate=N/A speed=   0x    frame=   41 fps= 39 q=0.0 size=       0kB time=00:00:00.00 bitrate=N/A speed=   0x    frame=   50 fps= 32 q=0.0 size=       0kB time=00:00:00.00 bitrate=N/A speed=   0x    frame=   59 fps= 28 q=29.0 size=       0kB time=00:00:00.25 bitrate=   1.5kbits/s speed=0.121x    frame=   69 fps= 26 q=27.0 size=       0kB time=00:00:00.75 bitrate=   0.5kbits/s speed=0.286x    frame=   79 fps= 25 q=25.0 size=       0kB time=00:00:01.25 bitrate=   0.3kbits/s speed=0.395x    frame=   89 fps= 24 q=25.0 size=       0kB time=00:00:01.75 bitrate=   0.2kbits/s speed=0.473x    frame=   98 fps= 23 q=25.0 size=       0kB time=00:00:02.20 bitrate=   0.2kbits/s speed=0.522x    frame=  107 fps= 23 q=25.0 size=       0kB time=00:00:02.65 bitrate=   0.1kbits/s speed=0.56x    frame=  116 fps= 22 q=25.0 size=       0kB time=00:00:03.10 bitrate=   0.1kbits/s speed=0.588x    frame=  125 fps= 22 q=25.0 size=       0kB time=00:00:03.55 bitrate=   0.1kbits/s speed=0.612x    frame=  134 fps= 21 q=25.0 size=       0kB time=00:00:04.00 bitrate=   0.1kbits/s speed=0.634x    frame=  143 fps= 21 q=25.0 size=       0kB time=00:00:04.45 bitrate=   0.1kbits/s speed=0.649x    frame=  152 fps= 21 q=25.0 size=       0kB time=00:00:04.90 bitrate=   0.1kbits/s speed=0.663x    frame=  162 fps= 20 q=25.0 size=     256kB time=00:00:05.40 bitrate= 388.4kbits/s speed=0.68x    frame=  171 fps= 20 q=25.0 size=     256kB time=00:00:05.85 bitrate= 358.5kbits/s speed=0.691x    frame=  180 fps= 20 q=25.0 size=     256kB time=00:00:06.30 bitrate= 332.9kbits/s speed=0.701x    frame=  189 fps= 20 q=26.0 size=     256kB time=00:00:06.75 bitrate= 310.7kbits/s speed=0.712x    frame=  198 fps= 20 q=26.0 size=     256kB time=00:00:07.20 bitrate= 291.3kbits/s speed=0.72x    frame=  208 fps= 20 q=26.0 size=     256kB time=00:00:07.70 bitrate= 272.4kbits/s speed=0.73x    frame=  216 fps= 20 q=26.0 size=     256kB time=00:00:08.10 bitrate= 259.0kbits/s speed=0.734x    frame=  224 fps= 19 q=26.0 size=     256kB time=00:00:08.50 bitrate= 246.8kbits/s speed=0.736x    frame=  232 fps= 19 q=26.0 size=     256kB time=00:00:08.90 bitrate= 235.7kbits/s speed=0.739x    frame=  233 fps= 19 q=-1.0 Lsize=     549kB time=00:00:11.50 bitrate= 391.0kbits/s speed=0.939x    
video:545kB audio:0kB subtitle:0kB other streams:0kB global headers:0kB muxing overhead: 0.650098%
[libx264 @ 0x55fe71820f40] frame I:1     Avg QP:23.92  size:  6390
[libx264 @ 0x55fe71820f40] frame P:58    Avg QP:20.06  size:  4917
[libx264 @ 0x55fe71820f40] frame B:174   Avg QP:22.81  size:  1529
[libx264 @ 0x55fe71820f40] consecutive B-frames:  0.4%  0.0%  0.0% 99.6%
[libx264 @ 0x55fe71820f40] mb I  I16..4: 23.0% 49.0% 28.0%
[libx264 @ 0x55fe71820f40] mb P  I16..4:  5.5%  3.5%  1.9%  P16..4: 18.5% 33.2% 30.8%  0.0%  0.0%    skip: 6.6%
[libx264 @ 0x55fe71820f40] mb B  I16..4:  0.2%  0.0%  0.0%  B16..8: 51.6% 15.8%  6.3%  direct: 5.0%  skip:21.1%  L0:42.2% L1:51.4% BI: 6.4%
[libx264 @ 0x55fe71820f40] final ratefactor: 20.69
[libx264 @ 0x55fe71820f40] 8x8 transform intra:33.1% inter:47.7%
[libx264 @ 0x55fe71820f40] coded y,uvDC,uvAC intra: 46.5% 43.6% 22.4% inter: 22.0% 18.6% 3.1%
[libx264 @ 0x55fe71820f40] i16 v,h,dc,p: 22% 29% 47%  2%
[libx264 @ 0x55fe71820f40] i8 v,h,dc,ddl,ddr,vr,hd,vl,hu:  5% 12% 32%  6%  9%  6% 13%  5% 11%
[libx264 @ 0x55fe71820f40] i4 v,h,dc,ddl,ddr,vr,hd,vl,hu: 14% 23% 22%  6%  8%  7%  9%  5%  7%
[libx264 @ 0x55fe71820f40] i8c dc,h,v,p: 55% 35%  8%  2%
[libx264 @ 0x55fe71820f40] Weighted P-Frames: Y:5.2% UV:3.4%
[libx264 @ 0x55fe71820f40] ref P L0: 78.6%  6.7% 11.6%  3.0%  0.0%
[libx264 @ 0x55fe71820f40] ref B L0: 93.3%  5.9%  0.8%
[libx264 @ 0x55fe71820f40] ref B L1: 96.4%  3.6%
[libx264 @ 0x55fe71820f40] kb/s:382.95
